<svg xmlns="http://www.w3.org/2000/svg" width="30.512" height="30.206" viewBox="0 0 30.512 30.206"><defs><style>.a{fill:#fff;}</style></defs><g transform="translate(-0.001 -2.566)"><path class="a" d="M152.14,216.164h-.009a.951.951,0,0,0,.009,1.9h.009a.951.951,0,0,0-.009-1.9Z" transform="translate(-142.18 -200.871)"/><path class="a" d="M327.235,214.571a.951.951,0,0,0,.009,1.9h.009a.951.951,0,0,0-.017-1.9Z" transform="translate(-306.85 -199.374)"/><path class="a" d="M28.655,13.122a6.7,6.7,0,0,0-2.433-.821h-.011a2.27,2.27,0,0,0-1.272.591c-.515.382-.863.616-1.268.467.08-.882.131-1.573.152-1.991,1.243-.356,5.031-1.524,6.117-2.8.617-.723.736-1.925.353-3.572a13.455,13.455,0,0,0-.706-2.151.477.477,0,0,0-.907.122,15.5,15.5,0,0,1-.927,3.622C27.741,6.61,27.444,7,25,7.4c-1.307.214-2.558.318-2.571.319a.477.477,0,0,0-.127.029,4.8,4.8,0,0,0-1.216-.778,16.5,16.5,0,0,0-5.828-.9,16.5,16.5,0,0,0-5.828.9,4.8,4.8,0,0,0-1.215.777.475.475,0,0,0-.123-.027c-.012,0-1.263-.106-2.571-.319C3.069,7,2.772,6.61,2.762,6.6a15.476,15.476,0,0,1-.929-3.625A.477.477,0,0,0,.926,2.85,13.455,13.455,0,0,0,.22,5C-.163,6.648-.044,7.85.573,8.573c1.106,1.3,4.964,2.489,6.114,2.823.022.437.076,1.155.16,2.068-.42.19-.778-.039-1.318-.425a2.285,2.285,0,0,0-1.282-.568,6.639,6.639,0,0,0-2.428.866C.606,14.009-.005,14.689,0,15.357c.008.932,1.778,2.1,3.361,2.564a5.693,5.693,0,0,0,1.6.246,3.479,3.479,0,0,0,2.315-.8c.556,4.394,1.5,9.913,2.852,12.765a.471.471,0,0,0,.026.046,2.373,2.373,0,0,0,2.381,2.58l5.574.009h.005a2.373,2.373,0,0,0,2.321-2.753C21.77,27.1,22.7,21.595,23.249,17.24a3.447,3.447,0,0,0,2.268.771,5.628,5.628,0,0,0,1.677-.276c1.574-.493,3.322-1.693,3.314-2.625C30.5,14.442,29.878,13.773,28.655,13.122ZM25.2,8.337c2.614-.432,3.183-.91,3.387-1.279a9.28,9.28,0,0,0,.7-2.161c.029.108.057.219.083.332.3,1.292.245,2.259-.152,2.724-.777.91-3.777,1.942-5.413,2.428a4.183,4.183,0,0,0-.725-1.763C23.587,8.566,24.376,8.473,25.2,8.337ZM1.3,7.954C.9,7.489.847,6.521,1.146,5.23c.026-.113.054-.224.083-.332a9.282,9.282,0,0,0,.7,2.161c.2.369.773.847,3.387,1.279.819.135,1.606.228,2.116.281A4.174,4.174,0,0,0,6.7,10.406C5.1,9.925,2.084,8.875,1.3,7.954Zm5.8,8.192a2.588,2.588,0,0,1-2.879,1,6.582,6.582,0,0,1-2.263-.9,2.6,2.6,0,0,1-1-.91c.013-.184.37-.637,1.326-1.168a5.878,5.878,0,0,1,1.974-.746h0a1.843,1.843,0,0,1,.718.391,2.373,2.373,0,0,0,1.967.624c.053.519.113,1.079.182,1.67C7.114,16.121,7.1,16.133,7.1,16.146ZM19.22,31.262a1.411,1.411,0,0,1-1.112.556l-5.577-.009a1.42,1.42,0,0,1-1.394-1.752l.37-1.541a2,2,0,0,1,.33-.714,1.319,1.319,0,0,0,.169.44,2.863,2.863,0,0,0,.522.566c.137.124.391.355.4.444,0,0-.026.1-.274.269a.477.477,0,1,0,.545.782,1.342,1.342,0,0,0,.68-.988A1.6,1.6,0,0,0,13.17,28.1a2.285,2.285,0,0,1-.355-.366.486.486,0,0,1-.007-.42.671.671,0,0,1,.554-.28l3.768.024a.688.688,0,0,1,.579.272.486.486,0,0,1,0,.42,2.324,2.324,0,0,1-.332.367,1.593,1.593,0,0,0-.663,1.224,1.37,1.37,0,0,0,.709.982.477.477,0,1,0,.531-.792c-.262-.175-.29-.276-.29-.276,0-.091.257-.337.379-.456a2.921,2.921,0,0,0,.484-.558,1.331,1.331,0,0,0,.166-.472,1.915,1.915,0,0,1,.378.737l.4,1.534A1.411,1.411,0,0,1,19.22,31.262Zm.817-2.821-.045-.174A2.914,2.914,0,0,0,17.207,26.1h-.021l-3.819-.024H13.3a2.842,2.842,0,0,0-2.716,2.212l-.065.272a54.27,54.27,0,0,1-2.022-9.312c-.554-3.817-.858-7.37-.866-8.205,0-.015,0-.03,0-.045A3.558,3.558,0,0,1,9.812,7.846a15.388,15.388,0,0,1,5.442-.823,15.388,15.388,0,0,1,5.442.823,3.6,3.6,0,0,1,2.19,3.046.474.474,0,0,0-.006.2c-.017.908-.32,4.408-.865,8.162A55.271,55.271,0,0,1,20.037,28.441Zm8.534-12.4a6.582,6.582,0,0,1-2.247.939,2.588,2.588,0,0,1-2.9-.947c-.009-.013-.018-.025-.028-.037.068-.591.128-1.15.18-1.666a2.4,2.4,0,0,0,1.928-.666,1.827,1.827,0,0,1,.713-.4h0a5.915,5.915,0,0,1,1.983.71c.966.514,1.331.96,1.347,1.144A2.6,2.6,0,0,1,28.571,16.036Z" transform="translate(0 0)"/><path class="a" d="M153.678,104.086a.477.477,0,1,0-.7-.644,10.176,10.176,0,0,1-3.752,1.713l.3-1.241a.477.477,0,0,0-.744-.5,13.534,13.534,0,0,1-5.872,1.862.477.477,0,0,0,0,.953h0a14.4,14.4,0,0,0,5.425-1.481l-.2.841a.477.477,0,0,0,.464.588h0A10.07,10.07,0,0,0,153.678,104.086Z" transform="translate(-133.946 -94.721)"/><path class="a" d="M325.973,120.9a.474.474,0,0,0,.274-.087,6.877,6.877,0,0,0,1.035-1.046.477.477,0,0,0-.74-.6,6.042,6.042,0,0,1-.845.868.477.477,0,0,0,.275.866Z" transform="translate(-306.101 -109.487)"/></g></svg>