<svg xmlns="http://www.w3.org/2000/svg" width="31.965" height="32.345" viewBox="0 0 31.965 32.345"><defs><style>.a{fill:#fff;}</style></defs><path class="a" d="M9.98,22.944l-4.026,5.75a.636.636,0,1,1-1.042-.729l4.026-5.75a.636.636,0,0,1,1.042.729Zm2.254.8a.636.636,0,0,0-.886.156l-4.027,5.75a.636.636,0,1,0,1.042.729l4.027-5.75A.636.636,0,0,0,12.234,23.746Zm17.412-.711a.636.636,0,0,0-1.042.73l1.623,2.318a1.256,1.256,0,0,1-.307,1.741.636.636,0,0,0,.73,1.042,2.528,2.528,0,0,0,.619-3.513Zm4.628,4.805a5,5,0,0,1-2.061,3.247l0,0A5.037,5.037,0,0,1,25.2,29.853l-3.782-5.4a.636.636,0,0,1,.156-.886l1.676-1.173L22.4,21.183a2.36,2.36,0,0,1,.106-2.837l-3.747-5.351-3.747,5.351a2.355,2.355,0,0,1,.107,2.837l-.848,1.211.161.113a2.488,2.488,0,0,1,.61,3.46l-4.273,6.1a.636.636,0,0,1-1.042-.729L14,25.237a1.214,1.214,0,0,0-.3-1.689l-.682-.478a.636.636,0,0,1-.156-.886l1.213-1.732a1.08,1.08,0,0,0-.263-1.5h0a1.084,1.084,0,0,0-1.5.266l-.848,1.211.1.072a.636.636,0,0,1-.73,1.042l-.623-.436h0l-.71-.5a1.218,1.218,0,0,0-1.689.3l-4.273,6.1A.636.636,0,0,1,2.5,26.278l4.273-6.1a2.49,2.49,0,0,1,3.46-.61l.189.132.848-1.211a2.361,2.361,0,0,1,2.7-.87l4.012-5.73L13.118,4.932l-.98.686a.636.636,0,0,1-.747-.013L9.416,4.119A.636.636,0,0,1,9.434,3.09L13.689.111a.636.636,0,0,1,.973.335l.721,2.364a.636.636,0,0,1-.243.706l-.98.686,4.6,6.574,4.6-6.574-.98-.686a.636.636,0,0,1-.243-.706L22.864.446a.636.636,0,0,1,.973-.335l4.256,2.98a.636.636,0,0,1,.018,1.029L26.135,5.605a.636.636,0,0,1-.747.013l-.98-.686-4.869,6.953,4.013,5.73a2.354,2.354,0,0,1,2.7.87h0L27.1,19.7l1.675-1.173a.636.636,0,0,1,.886.156l3.782,5.4A5,5,0,0,1,34.273,27.84ZM23.494,2.74l2.245,1.572.906-.682-2.82-1.975Zm-9.462,0L13.7,1.655,10.881,3.63l.906.682L12.9,3.529l0,0,0,0ZM32.4,24.811l-3.417-4.88L27.311,21.1h0l-.622.436a.636.636,0,1,1-.73-1.042l.1-.072-.848-1.211h0a1.078,1.078,0,0,0-1.767,1.237l1.213,1.732a.636.636,0,0,1-.156.886l-1.676,1.173,3.417,4.88a3.764,3.764,0,0,0,5.235.924h0a3.773,3.773,0,0,0,.923-5.236Z" transform="translate(-2.387 0.005)"/></svg>