<svg xmlns="http://www.w3.org/2000/svg" width="27.593" height="27.593" viewBox="0 0 27.593 27.593"><defs><style>.a{fill:#fff;}.b,.c{stroke:none;}.c{fill:#59bc64;}</style></defs><g class="a"><path class="b" d="M 13.796630859375 27.34326171875 C 10.18860054016113 27.34326171875 6.789610862731934 25.93130111694336 4.225790977478027 23.36747169494629 C 1.66196084022522 20.80365180969238 0.2500008642673492 17.40466117858887 0.2500008642673492 13.796630859375 C 0.2500008642673492 10.18860054016113 1.66196084022522 6.789610862731934 4.225790977478027 4.225790977478027 C 6.789610862731934 1.66196084022522 10.18860054016113 0.2500008642673492 13.796630859375 0.2500008642673492 C 17.40466117858887 0.2500008642673492 20.80365180969238 1.66196084022522 23.36747169494629 4.225790977478027 C 25.93130111694336 6.789610862731934 27.34326171875 10.18860054016113 27.34326171875 13.796630859375 C 27.34326171875 17.40466117858887 25.93130111694336 20.80365180969238 23.36747169494629 23.36747169494629 C 20.80365180969238 25.93130111694336 17.40466117858887 27.34326171875 13.796630859375 27.34326171875 Z M 11.91041088104248 20.54290008544922 L 11.8699312210083 20.80703163146973 L 11.24008083343506 24.9160213470459 L 11.20388126373291 25.15219116210938 L 11.43816089630127 25.19904136657715 C 12.25033092498779 25.36149024963379 13.0438404083252 25.44385147094727 13.796630859375 25.44385147094727 C 14.54943084716797 25.44385147094727 15.34293079376221 25.36149024963379 16.15509033203125 25.19904136657715 L 16.38936996459961 25.15219116210938 L 16.35317039489746 24.9160213470459 L 15.7233304977417 20.80703163146973 L 15.68066120147705 20.52866172790527 L 15.40931129455566 20.60403060913086 C 14.92958068847656 20.73728179931641 14.38700103759766 20.80485153198242 13.796630859375 20.80485153198242 C 13.3206205368042 20.80485153198242 12.78896045684814 20.73813056945801 12.17127132415771 20.60086059570312 L 11.91041088104248 20.54290008544922 Z M 7.546660900115967 16.94135093688965 L 7.369910717010498 16.96874046325684 L 3.110950946807861 17.62858009338379 L 2.80375075340271 17.67617034912109 L 2.916140794754028 17.96601104736328 C 3.501990795135498 19.47689056396484 4.398100852966309 20.85739135742188 5.579590797424316 22.06918144226074 C 6.709560871124268 23.19918060302734 8.118821144104004 24.11058044433594 9.657240867614746 24.70711135864258 L 9.947080612182617 24.81949996948242 L 9.994670867919922 24.51230049133301 L 10.65451049804688 20.25334167480469 L 10.680251121521 20.08719062805176 L 10.53608131408691 20.00069046020508 C 9.847480773925781 19.5875301361084 9.304030418395996 19.17797088623047 8.874660491943359 18.74860000610352 L 8.872130393981934 18.74608039855957 L 8.869541168212891 18.74363136291504 C 8.36504077911377 18.26716041564941 7.959470748901367 17.72945022583008 7.629651069641113 17.09979057312012 L 7.546660900115967 16.94135093688965 Z M 20.04305076599121 16.91081047058105 L 19.96146011352539 17.07400131225586 C 19.68305015563965 17.63082122802734 19.25231170654297 18.21489143371582 18.74860000610352 18.71862030029297 L 18.74608039855957 18.72113990783691 L 18.74363136291504 18.72373008728027 C 18.26715087890625 19.22821998596191 17.72945022583008 19.63379096984863 17.09979057312012 19.9636116027832 L 16.94135093688965 20.04660034179688 L 16.96874046325684 20.22335052490234 L 17.62858009338379 24.4823112487793 L 17.6753101348877 24.78395080566406 L 17.96183013916016 24.67870140075684 C 19.45331001281738 24.13081169128418 20.86401176452637 23.2188606262207 22.04144096374512 22.04144096374512 C 23.21226119995117 20.83983993530273 24.09846115112305 19.45882034301758 24.67773056030273 17.93444061279297 L 24.78739166259766 17.64585113525391 L 24.4823112487793 17.59859085083008 L 20.22335052490234 16.93875122070312 L 20.04305076599121 16.91081047058105 Z M 13.796630859375 8.747800827026367 C 12.43400096893311 8.747800827026367 11.15694046020508 9.274431228637695 10.20068073272705 10.23068046569824 C 9.25830078125 11.17307090759277 8.71781063079834 12.48374080657959 8.71781063079834 13.82662105560303 C 8.71781063079834 15.20899105072021 9.230581283569336 16.45245170593262 10.20068073272705 17.42257118225098 C 11.14307117462158 18.36495018005371 12.4537410736084 18.90544128417969 13.796630859375 18.90544128417969 C 15.13951110839844 18.90544128417969 16.45018005371094 18.36495018005371 17.39257049560547 17.42257118225098 C 18.3349609375 16.48018074035645 18.87545013427734 15.16951084136963 18.87545013427734 13.82662105560303 C 18.87545013427734 12.44424057006836 18.36268043518066 11.20078086853027 17.39257049560547 10.23068046569824 C 16.45018005371094 9.288290977478027 15.1395206451416 8.747800827026367 13.796630859375 8.747800827026367 Z M 25.15219116210938 11.20388126373291 L 24.9160213470459 11.24008083343506 L 20.80703163146973 11.8699312210083 L 20.54441070556641 11.91018104553223 L 20.60056114196777 12.16987133026123 C 20.83395004272461 13.24931049346924 20.83395004272461 14.34395122528076 20.60056114196777 15.42339038848877 L 20.54441070556641 15.68308067321777 L 20.80703163146973 15.7233304977417 L 24.9160213470459 16.35317993164062 L 25.15219116210938 16.38938140869141 L 25.19904136657715 16.15510177612305 C 25.36149024963379 15.34293079376221 25.44385147094727 14.5494213104248 25.44385147094727 13.796630859375 C 25.44385147094727 13.0438404083252 25.36149024963379 12.25033092498779 25.19904136657715 11.43816089630127 L 25.15219116210938 11.20388126373291 Z M 2.441070795059204 11.20388126373291 L 2.39422082901001 11.43816089630127 C 2.231770753860474 12.25033092498779 2.149410963058472 13.0438404083252 2.149410963058472 13.796630859375 C 2.149410963058472 14.54943084716797 2.231770753860474 15.34293079376221 2.39422082901001 16.15509033203125 L 2.441070795059204 16.38936996459961 L 2.67724084854126 16.35317039489746 L 6.78623104095459 15.7233304977417 L 7.064600944519043 15.68066120147705 L 6.989230632781982 15.40931129455566 C 6.855970859527588 14.92956066131592 6.788400650024414 14.38697052001953 6.788400650024414 13.796630859375 C 6.788400650024414 13.32065105438232 6.855130672454834 12.78899097442627 6.992400646209717 12.17127132415771 L 7.050360679626465 11.91041088104248 L 6.78623104095459 11.8699312210083 L 2.67724084854126 11.24008083343506 L 2.441070795059204 11.20388126373291 Z M 17.67617034912109 2.80375075340271 L 17.62858009338379 3.110950946807861 L 16.96874046325684 7.369910717010498 L 16.9408016204834 7.550210952758789 L 17.10399055480957 7.631800651550293 C 17.66081047058105 7.910211086273193 18.24488067626953 8.340950965881348 18.74861145019531 8.844660758972168 C 19.23820114135742 9.334260940551758 19.64699172973633 9.88900089263916 19.9636116027832 10.49347114562988 L 20.04660034179688 10.65191078186035 L 20.22335052490234 10.62452125549316 L 24.4823112487793 9.964680671691895 L 24.78951072692871 9.91709041595459 L 24.67712020874023 9.627250671386719 C 24.09144020080566 8.1168212890625 23.20544052124023 6.746420860290527 22.04372024536133 5.554131031036377 C 20.91368103027344 4.424070835113525 19.50442123413086 3.51266074180603 17.96601104736328 2.916140794754028 L 17.67617034912109 2.80375075340271 Z M 9.917950630187988 2.809310913085938 L 9.631430625915527 2.914560794830322 C 8.139941215515137 3.46246075630188 6.729240894317627 4.374410629272461 5.551820755004883 5.551820755004883 C 4.406570911407471 6.727180957794189 3.51102089881897 8.096200942993164 2.887780904769897 9.623161315917969 L 2.768160820007324 9.916220664978027 L 3.080960750579834 9.964680671691895 L 7.339920997619629 10.62452125549316 L 7.506071090698242 10.65026092529297 L 7.592570781707764 10.50609111785889 C 8.005721092224121 9.817501068115234 8.415281295776367 9.274041175842285 8.844660758972168 8.844651222229004 C 9.334260940551758 8.355060577392578 9.88900089263916 7.946270942687988 10.49347114562988 7.629651069641113 L 10.65191078186035 7.546660900115967 L 10.62452125549316 7.369910717010498 L 9.964680671691895 3.110950946807861 L 9.917950630187988 2.809310913085938 Z M 13.796630859375 6.795900821685791 C 14.33897113800049 6.795900821685791 14.88418102264404 6.861630916595459 15.41713047027588 6.991271018981934 L 15.68203067779541 7.055700778961182 L 15.7233304977417 6.78623104095459 L 16.35317039489746 2.67724084854126 L 16.38936996459961 2.441070795059204 L 16.15509033203125 2.39422082901001 C 15.34293079376221 2.231770753860474 14.54943084716797 2.149410963058472 13.796630859375 2.149410963058472 C 13.0438404083252 2.149410963058472 12.25033092498779 2.231770753860474 11.43816089630127 2.39422082901001 L 11.20388126373291 2.441070795059204 L 11.24008083343506 2.67724084854126 L 11.8699312210083 6.78623104095459 L 11.91123104095459 7.055700778961182 L 12.17613124847412 6.991271018981934 C 12.70908069610596 6.861630916595459 13.25429058074951 6.795900821685791 13.796630859375 6.795900821685791 Z"/><path class="c" d="M 13.796630859375 0.5 C 10.25538063049316 0.5 6.919170379638672 1.885961532592773 4.402561187744141 4.402561187744141 C 1.885961532592773 6.919170379638672 0.5 10.25538063049316 0.5 13.796630859375 C 0.5 17.33788108825684 1.885961532592773 20.67409133911133 4.402561187744141 23.19070053100586 C 6.919170379638672 25.70730018615723 10.25538063049316 27.09326171875 13.796630859375 27.09326171875 C 17.33788108825684 27.09326171875 20.67409133911133 25.70730018615723 23.19070053100586 23.19070053100586 C 25.70730018615723 20.67409133911133 27.09326171875 17.33788108825684 27.09326171875 13.796630859375 C 27.09326171875 10.25538063049316 25.70730018615723 6.919170379638672 23.19070053100586 4.402561187744141 C 20.67409133911133 1.885961532592773 17.33788108825684 0.5 13.796630859375 0.5 M 15.88784122467041 7.36305046081543 L 15.35804080963135 7.234180450439453 C 14.84442043304443 7.109251022338867 14.31909084320068 7.045900344848633 13.796630859375 7.045900344848633 C 13.27416038513184 7.045900344848633 12.74883079528809 7.109251022338867 12.23522090911865 7.234180450439453 L 11.70543098449707 7.363059997558594 L 11.62281131744385 6.82411003112793 L 10.99295997619629 2.715110778808594 L 10.92056083679199 2.242771148681641 L 11.38913154602051 2.14906120300293 C 12.21743106842041 1.983400344848633 13.02743053436279 1.899410247802734 13.796630859375 1.899410247802734 C 14.56583118438721 1.899410247802734 15.37583065032959 1.983400344848633 16.20412063598633 2.14906120300293 L 16.67269134521484 2.242771148681641 L 16.60029220581055 2.715110778808594 L 15.97045040130615 6.82411003112793 L 15.88784122467041 7.36305046081543 M 19.90813064575195 10.92634010314941 L 19.74215126037598 10.60947036743164 C 19.43728065490723 10.02743148803711 19.04352188110352 9.493141174316406 18.57183074951172 9.021440505981445 C 18.08661079406738 8.536220550537109 17.52561187744141 8.122121810913086 16.99217987060547 7.855400085449219 L 16.66582107543945 7.692220687866211 L 16.7216796875 7.331640243530273 L 17.38152122497559 3.072681427001953 L 17.47671127319336 2.458280563354492 L 18.0563907623291 2.683050155639648 C 19.62695121765137 3.292041778564453 21.06608200073242 4.222921371459961 22.21821022033691 5.375051498413086 L 22.22051048278809 5.377340316772461 L 22.22277069091797 5.379671096801758 C 23.40812110900879 6.596200942993164 24.31231117248535 7.994890213012695 24.91021156311035 9.536870956420898 L 25.13498115539551 10.11655044555664 L 24.52058029174805 10.21174049377441 L 20.26162147521973 10.87158012390137 L 19.90813064575195 10.92634010314941 M 7.633951187133789 10.92306137084961 L 7.301651000976562 10.87158012390137 L 3.042690277099609 10.21174049377441 L 2.417079925537109 10.11481094360352 L 2.656320571899414 9.528680801391602 C 3.291770935058594 7.971811294555664 4.204950332641602 6.57588005065918 5.370491027832031 5.379671096801758 L 5.372751235961914 5.377340316772461 L 5.375051498413086 5.375051498413086 C 6.577930450439453 4.172170639038086 8.019950866699219 3.240200042724609 9.545221328735352 2.679891586303711 L 10.11827087402344 2.469390869140625 L 10.21174049377441 3.072681427001953 L 10.87158012390137 7.331640243530273 L 10.92634010314941 7.685131072998047 L 10.60947036743164 7.851110458374023 C 10.02743148803711 8.155981063842773 9.493141174316406 8.549741744995117 9.021440505981445 9.021430969238281 C 8.606710433959961 9.43617057800293 8.209440231323242 9.96388053894043 7.806951522827148 10.63471031188965 L 7.633951187133789 10.92306137084961 M 13.796630859375 19.15544128417969 C 12.38793087005615 19.15544128417969 11.01283073425293 18.58826065063477 10.02390098571777 17.59934043884277 C 9.005901336669922 16.58132171630859 8.467811584472656 15.27674102783203 8.467811584472656 13.82662105560303 C 8.467811584472656 12.41793060302734 9.034990310668945 11.04283142089844 10.02391052246094 10.05391120910645 C 11.02737998962402 9.050441741943359 12.36722087860107 8.497800827026367 13.796630859375 8.497800827026367 C 15.20533084869385 8.497800827026367 16.58043098449707 9.064981460571289 17.56933975219727 10.05390167236328 C 18.58736038208008 11.0719108581543 19.12545013427734 12.37649059295654 19.12545013427734 13.82662105560303 C 19.12545013427734 15.23531055450439 18.55826950073242 16.61042022705078 17.56933975219727 17.59934043884277 C 16.58042144775391 18.58826065063477 15.20532131195068 19.15544128417969 13.796630859375 19.15544128417969 M 2.242771148681641 16.67269134521484 L 2.14906120300293 16.20412063598633 C 1.983400344848633 15.37583065032959 1.899410247802734 14.56583118438721 1.899410247802734 13.796630859375 C 1.899410247802734 13.02743053436279 1.983400344848633 12.21743106842041 2.14906120300293 11.38913154602051 L 2.242771148681641 10.92056083679199 L 2.715110778808594 10.99295997619629 L 6.82411003112793 11.62281131744385 L 7.352380752563477 11.70379066467285 L 7.236440658569336 12.22550106048584 C 7.103179931640625 12.82519054412842 7.038400650024414 13.339111328125 7.038400650024414 13.796630859375 C 7.038400650024414 14.36436080932617 7.102901458740234 14.88444042205811 7.230110168457031 15.34240055084229 L 7.380861282348633 15.88511085510254 L 6.82411003112793 15.97045040130615 L 2.715110778808594 16.60029220581055 L 2.242771148681641 16.67269134521484 M 25.35047149658203 16.67270088195801 L 24.87814140319824 16.60029983520508 L 20.76914978027344 15.97045040130615 L 20.24391174316406 15.88993072509766 L 20.356201171875 15.37055110931396 C 20.58201026916504 14.32617092132568 20.58201026916504 13.26709079742432 20.356201171875 12.22271060943604 L 20.24391174316406 11.70333099365234 L 20.76914978027344 11.62281131744385 L 24.87814140319824 10.99295997619629 L 25.35047149658203 10.92056083679199 L 25.44419097900391 11.38913154602051 C 25.6098518371582 12.21737098693848 25.69384002685547 13.02738094329834 25.69384002685547 13.796630859375 C 25.69384002685547 14.56588077545166 25.6098518371582 15.37589073181152 25.44419097900391 16.20413208007812 L 25.35047149658203 16.67270088195801 M 17.47499084472656 25.12387084960938 L 17.38152122497559 24.52058029174805 L 16.7216796875 20.26162147521973 L 16.66691970825195 19.90813064575195 L 16.98379135131836 19.74215126037598 C 17.58853149414062 19.42539215087891 18.10472106933594 19.03610992431641 18.56187057495117 18.55207061767578 L 18.56678009033203 18.5468807220459 L 18.57183074951172 18.54183197021484 C 19.05702972412109 18.05663108825684 19.47113037109375 17.49563217163086 19.73786163330078 16.96219062805176 L 19.90104103088379 16.63582992553711 L 20.26162147521973 16.69169044494629 L 24.52058029174805 17.35153198242188 L 25.13075065612793 17.44607162475586 L 24.91142082214355 18.02325057983398 C 24.31992149353027 19.57982063293457 23.41533088684082 20.98965072631836 22.22277069091797 22.21359062194824 L 22.22051048278809 22.21592140197754 L 22.21821022033691 22.21821022033691 C 21.01534080505371 23.42109107971191 19.57332038879395 24.35306167602539 18.04804039001465 24.91336059570312 L 17.47499084472656 25.12387084960938 M 10.14654159545898 25.16497039794922 L 9.566860198974609 24.94020080566406 C 7.996301651000977 24.33121109008789 6.557170867919922 23.40033149719238 5.405040740966797 22.24820137023926 L 5.402801513671875 22.2459716796875 L 5.400590896606445 22.24370193481445 C 4.195461273193359 21.00767135620117 3.281150817871094 19.59886169433594 2.683050155639648 18.0563907623291 L 2.458280563354492 17.47671127319336 L 3.072681427001953 17.38152122497559 L 7.331640243530273 16.7216796875 L 7.685131072998047 16.66691970825195 L 7.851110458374023 16.98379135131836 C 8.167871475219727 17.58852005004883 8.557151794433594 18.10472106933594 9.041191101074219 18.56188201904297 L 9.046371459960938 18.56678009033203 L 9.051420211791992 18.57182121276855 C 9.466161727905273 18.98655128479004 9.993871688842773 19.38381958007812 10.66470146179199 19.78631019592285 L 10.95305061340332 19.95931053161621 L 10.90157127380371 20.29161071777344 L 10.24173164367676 24.55057144165039 L 10.14654159545898 25.16497039794922 M 13.796630859375 25.69384002685547 C 13.02738094329834 25.69384002685547 12.21737098693848 25.6098518371582 11.38913154602051 25.44419097900391 L 10.92056083679199 25.35047149658203 L 10.99295997619629 24.87814140319824 L 11.62281131744385 20.76914978027344 L 11.70379066467285 20.24088096618652 L 12.22550106048584 20.35682106018066 C 12.82516098022461 20.49007034301758 13.33908081054688 20.55485153198242 13.796630859375 20.55485153198242 C 14.3643913269043 20.55485153198242 14.88446044921875 20.4903507232666 15.34240055084229 20.36315155029297 L 15.88511085510254 20.21240043640137 L 15.97045040130615 20.76914978027344 L 16.60029220581055 24.87814140319824 L 16.67269134521484 25.35047149658203 L 16.20412063598633 25.44419097900391 C 15.37589073181152 25.6098518371582 14.56589126586914 25.69384002685547 13.796630859375 25.69384002685547 M 13.796630859375 0 C 17.48573112487793 0 20.93489074707031 1.439651489257812 23.54425048828125 4.04901123046875 C 26.15361022949219 6.658370971679688 27.59326171875 10.10753059387207 27.59326171875 13.796630859375 C 27.59326171875 17.48573112487793 26.15361022949219 20.93489074707031 23.54425048828125 23.54425048828125 C 20.93489074707031 26.15361022949219 17.48573112487793 27.59326171875 13.796630859375 27.59326171875 C 10.10753059387207 27.59326171875 6.658370971679688 26.15361022949219 4.04901123046875 23.54425048828125 C 1.439651489257812 20.93489074707031 0 17.48573112487793 0 13.796630859375 C 0 10.10753059387207 1.439651489257812 6.658370971679688 4.04901123046875 4.04901123046875 C 6.658370971679688 1.439651489257812 10.10753059387207 0 13.796630859375 0 Z M 15.47622108459473 6.748350143432617 L 16.10606002807617 2.639350891113281 C 15.35625076293945 2.489391326904297 14.57644081115723 2.399410247802734 13.796630859375 2.399410247802734 C 13.01682090759277 2.399410247802734 12.23701095581055 2.489391326904297 11.48719024658203 2.639350891113281 L 12.11704063415527 6.748350143432617 C 12.67190551757812 6.613386154174805 13.23426818847656 6.545904159545898 13.796630859375 6.545904159545898 C 14.35899353027344 6.545904159545898 14.92135620117188 6.613386154174805 15.47622108459473 6.748350143432617 Z M 7.378200531005859 10.37747001647949 C 7.73811149597168 9.777610778808594 8.158010482788086 9.177761077880859 8.667881011962891 8.667881011962891 C 9.177761077880859 8.158010482788086 9.747621536254883 7.73811149597168 10.37747001647949 7.408191680908203 L 9.717630386352539 3.14923095703125 C 8.247980117797852 3.68910026550293 6.868320465087891 4.58888053894043 5.728601455688477 5.728601455688477 C 4.58888053894043 6.898311614990234 3.719091415405273 8.247980117797852 3.119241714477539 9.717630386352539 L 7.378200531005859 10.37747001647949 Z M 20.1850700378418 10.37747001647949 L 24.44403076171875 9.717630386352539 C 23.87417030334473 8.247980117797852 23.00438117980957 6.898311614990234 21.86466026306152 5.728601455688477 C 20.72494125366211 4.58888053894043 19.34527206420898 3.719091415405273 17.87563133239746 3.14923095703125 L 17.21578979492188 7.408191680908203 C 17.81565093994141 7.708120346069336 18.41550064086914 8.158010482788086 18.92538070678711 8.667881011962891 C 19.43525123596191 9.177761077880859 19.85515022277832 9.747621536254883 20.1850700378418 10.37747001647949 Z M 13.796630859375 18.65544128417969 C 15.08631038665771 18.65544128417969 16.31600952148438 18.14557075500488 17.21578979492188 17.24579048156738 C 18.11557006835938 16.34601211547852 18.62545013427734 15.11631107330322 18.62545013427734 13.82662105560303 C 18.62545013427734 12.53693103790283 18.14557075500488 11.33723068237305 17.21578979492188 10.40746116638184 C 16.2860221862793 9.477680206298828 15.02633094787598 8.997800827026367 13.796630859375 8.997800827026367 C 12.56693077087402 8.997800827026367 11.33723068237305 9.447690963745117 10.37746047973633 10.40746116638184 C 9.477680206298828 11.30724143981934 8.967811584472656 12.53693103790283 8.967811584472656 13.82662105560303 C 8.967811584472656 15.11631107330322 9.447690963745117 16.31600952148438 10.37746047973633 17.24579048156738 C 11.27724075317383 18.14557075500488 12.5069408416748 18.65544128417969 13.796630859375 18.65544128417969 Z M 2.639350891113281 16.10606002807617 L 6.748350143432617 15.47622108459473 C 6.598390579223633 14.93635082244873 6.538400650024414 14.36649131774902 6.538400650024414 13.796630859375 C 6.538400650024414 13.22677040100098 6.628381729125977 12.65691089630127 6.748350143432617 12.11704063415527 L 2.639350891113281 11.48719024658203 C 2.489391326904297 12.23701095581055 2.399410247802734 13.01682090759277 2.399410247802734 13.796630859375 C 2.399410247802734 14.57644081115723 2.489391326904297 15.35625076293945 2.639350891113281 16.10606002807617 Z M 24.95390129089355 16.10607147216797 C 25.1038703918457 15.35625076293945 25.19384002685547 14.57644081115723 25.19384002685547 13.796630859375 C 25.19384002685547 13.01682090759277 25.1038703918457 12.23701095581055 24.95390129089355 11.48719024658203 L 20.84490966796875 12.11704063415527 C 21.0848503112793 13.22677040100098 21.0848503112793 14.36649131774902 20.84490966796875 15.47622108459473 L 24.95390129089355 16.10607147216797 Z M 17.87563133239746 24.44403076171875 C 19.34527206420898 23.90416145324707 20.72494125366211 23.00438117980957 21.86466026306152 21.86466026306152 C 23.00438117980957 20.69495010375977 23.87417030334473 19.34527206420898 24.44403076171875 17.84564208984375 L 20.1850700378418 17.18580055236816 C 19.88514137268066 17.78565216064453 19.43525123596191 18.3855094909668 18.92538070678711 18.89538192749023 C 18.41550064086914 19.43525123596191 17.84564208984375 19.85515022277832 17.21578979492188 20.1850700378418 L 17.87563133239746 24.44403076171875 Z M 9.747621536254883 24.47402191162109 L 10.40746116638184 20.21506118774414 C 9.807600021362305 19.85515022277832 9.20775032043457 19.43525123596191 8.697870254516602 18.92538070678711 C 8.158010482788086 18.41550064086914 7.73811149597168 17.84564208984375 7.408191680908203 17.21578979492188 L 3.14923095703125 17.87563133239746 C 3.719091415405273 19.34527206420898 4.58888053894043 20.69495010375977 5.758590698242188 21.89465141296387 C 6.898311614990234 23.03437042236328 8.277980804443359 23.90416145324707 9.747621536254883 24.47402191162109 Z M 13.796630859375 21.05485153198242 C 13.22677040100098 21.05485153198242 12.65691089630127 20.96488189697266 12.11704063415527 20.84490966796875 L 11.48719024658203 24.95390129089355 C 12.23701095581055 25.1038703918457 13.01682090759277 25.19384002685547 13.796630859375 25.19384002685547 C 14.57644081115723 25.19384002685547 15.35625076293945 25.1038703918457 16.10606002807617 24.95390129089355 L 15.47622108459473 20.84490966796875 C 14.93635082244873 20.99487113952637 14.36649131774902 21.05485153198242 13.796630859375 21.05485153198242 Z"/></g></svg>