<svg xmlns="http://www.w3.org/2000/svg" width="32.316" height="31.294" viewBox="0 0 32.316 31.294"><defs><style>.a{fill:#fff;}.b,.c{stroke:none;}.c{fill:#2fbe91;}</style></defs><g transform="translate(0 -2.79)"><g class="a" transform="translate(-17.053 -26.143)"><path class="b" d="M 44.17475128173828 59.97705459594727 L 22.24795341491699 59.97705459594727 C 21.62875175476074 59.97705459594727 21.12499237060547 59.47330474853516 21.12499237060547 58.85410308837891 L 21.12499237060547 45.20804214477539 C 21.12499237060547 44.87166213989258 21.27386283874512 44.55597305297852 21.53344345092773 44.34190368652344 L 32.49697113037109 35.29760360717773 C 32.69772338867188 35.13197326660156 32.95152282714844 35.04076385498047 33.21160125732422 35.04076385498047 C 33.47167205810547 35.04076385498047 33.72541427612305 35.13196182250977 33.92606353759766 35.29756164550781 L 44.88959121704102 44.34188461303711 C 45.14927291870117 44.55602264404297 45.29800415039062 44.87163162231445 45.29770278930664 45.20780181884766 L 45.29770278930664 58.85410308837891 C 45.29770278930664 59.47330474853516 44.79395294189453 59.97705459594727 44.17475128173828 59.97705459594727 Z M 30.38700294494629 47.38383483886719 L 36.03625106811523 47.38383483886719 C 36.65545272827148 47.38383483886719 37.15920257568359 47.88759231567383 37.15920257568359 48.50679397583008 L 37.15920257568359 57.48114395141602 L 37.15920257568359 57.73114395141602 L 37.40920257568359 57.73114395141602 L 42.80216217041016 57.73114395141602 L 43.05216217041016 57.73114395141602 L 43.05216217041016 57.48114395141602 L 43.05216217041016 45.85534286499023 L 43.05216217041016 45.73749160766602 L 42.96125411987305 45.66249465942383 L 33.37071228027344 37.75080490112305 L 33.21162414550781 37.61956405639648 L 33.05253219604492 37.75080490112305 L 23.46200180053711 45.66249465942383 L 23.37109184265137 45.73749160766602 L 23.37109184265137 45.85534286499023 L 23.37109184265137 57.48114395141602 L 23.37109184265137 57.73114395141602 L 23.62109184265137 57.73114395141602 L 29.01405334472656 57.73114395141602 L 29.26405334472656 57.73114395141602 L 29.26405334472656 57.48114395141602 L 29.26405334472656 48.50679397583008 C 29.26405334472656 47.88759231567383 29.76780319213867 47.38383483886719 30.38700294494629 47.38383483886719 Z M 31.50995254516602 49.62974166870117 L 31.50995254516602 49.87974166870117 L 31.50995254516602 57.48114395141602 L 31.50995254516602 57.73114395141602 L 31.75995254516602 57.73114395141602 L 34.66311264038086 57.73114395141602 L 34.91311264038086 57.73114395141602 L 34.91311264038086 57.48114395141602 L 34.91311264038086 49.87974166870117 L 34.91311264038086 49.62974166870117 L 34.66311264038086 49.62974166870117 L 31.75995254516602 49.62974166870117 L 31.50995254516602 49.62974166870117 Z"/><path class="c" d="M 33.21160125732422 35.29075241088867 C 33.00944137573242 35.29075241088867 32.81215286254883 35.36166381835938 32.65606307983398 35.49045181274414 L 21.69250106811523 44.53478240966797 C 21.49072265625 44.7011833190918 21.37499237060547 44.94657516479492 21.37499237060547 45.20804214477539 L 21.37499237060547 58.85410308837891 C 21.37499237060547 59.33545303344727 21.7666015625 59.72705459594727 22.24795150756836 59.72705459594727 L 44.17475128173828 59.72705459594727 C 44.65610504150391 59.72705459594727 45.04770278930664 59.33545303344727 45.04770278930664 58.85410308837891 L 45.04770278930664 45.20758438110352 C 45.04794311523438 44.94640350341797 44.93235015869141 44.7011833190918 44.73050308227539 44.53473281860352 L 33.76692199707031 35.49037170410156 C 33.61095428466797 35.36164474487305 33.41373443603516 35.29075241088867 33.21160125732422 35.29075241088867 M 43.30216217041016 57.98114395141602 L 42.80216217041016 57.98114395141602 L 37.40920257568359 57.98114395141602 L 36.90920257568359 57.98114395141602 L 36.90920257568359 57.48114395141602 L 36.90920257568359 48.50679397583008 C 36.90920257568359 48.02544403076172 36.51760101318359 47.63383483886719 36.0362548828125 47.63383483886719 L 30.38700103759766 47.63383483886719 C 29.9056510925293 47.63383483886719 29.51405334472656 48.02544403076172 29.51405334472656 48.50679397583008 L 29.51405334472656 57.48114395141602 L 29.51405334472656 57.98114395141602 L 29.01405334472656 57.98114395141602 L 23.6210823059082 57.98114395141602 L 23.1210823059082 57.98114395141602 L 23.1210823059082 57.48114395141602 L 23.1210823059082 45.85534286499023 L 23.1210823059082 45.61964416503906 L 23.30290222167969 45.46964263916016 L 32.8934440612793 37.55795288085938 L 33.21162414550781 37.29547500610352 L 33.52980422973633 37.55795288085938 L 43.12034225463867 45.46964263916016 L 43.30216217041016 45.61964416503906 L 43.30216217041016 45.85534286499023 L 43.30216217041016 57.48114395141602 L 43.30216217041016 57.98114395141602 M 35.16311264038086 57.48114395141602 L 34.66320037841797 57.48114395141602 L 34.66311264038086 57.98114395141602 L 31.75995254516602 57.98114395141602 L 31.25995254516602 57.98114395141602 L 31.25995254516602 57.48114395141602 L 31.25995254516602 49.87974166870117 L 31.25995254516602 49.37974166870117 L 31.75995254516602 49.37974166870117 L 34.66311264038086 49.37974166870117 L 35.16311264038086 49.37974166870117 L 35.16311264038086 49.87974166870117 L 35.16311264038086 57.48114395141602 M 33.21160507202148 34.7907600402832 C 33.5215950012207 34.7907600402832 33.83156204223633 34.89542388916016 34.0851936340332 35.10475158691406 L 45.04868316650391 44.14903259277344 C 45.36501312255859 44.40989303588867 45.54807281494141 44.79816436767578 45.54770278930664 45.20803451538086 L 45.54770278930664 58.85410308837891 C 45.54770278930664 59.61252212524414 44.93317413330078 60.22705459594727 44.17475128173828 60.22705459594727 L 22.24795150756836 60.22705459594727 C 21.48953247070312 60.22705459594727 20.87499237060547 59.61252212524414 20.87499237060547 58.85410308837891 L 20.87499237060547 45.20804214477539 C 20.87499237060547 44.79816436767578 21.05806350708008 44.40989303588867 21.37438201904297 44.14903259277344 L 32.33788299560547 35.10475158691406 C 32.59160232543945 34.89542388916016 32.90161514282227 34.7907600402832 33.21160507202148 34.7907600402832 Z M 42.80216217041016 57.48114395141602 L 42.80216217041016 45.85534286499023 L 33.21162414550781 37.94365310668945 L 23.6210823059082 45.85534286499023 L 23.6210823059082 57.48114395141602 L 29.01405334472656 57.48114395141602 L 29.01405334472656 48.50679397583008 C 29.01405334472656 47.74837493896484 29.62858200073242 47.13383483886719 30.38700103759766 47.13383483886719 L 36.0362548828125 47.13383483886719 C 36.79467010498047 47.13383483886719 37.40920257568359 47.74837493896484 37.40920257568359 48.50679397583008 L 37.40920257568359 57.48114395141602 L 42.80216217041016 57.48114395141602 Z M 34.66311264038086 57.48114395141602 L 34.66311264038086 49.87974166870117 L 31.75995254516602 49.87974166870117 L 31.75995254516602 57.48114395141602 L 34.66311264038086 57.48114395141602 L 34.66329193115234 57.48114395141602 L 34.66311264038086 57.48114395141602 Z"/></g><g class="a" transform="translate(0 0)"><path class="b" d="M 1.374324083328247 17.44651222229004 C 1.030944108963013 17.44651222229004 0.7110940217971802 17.2930736541748 0.4967940449714661 17.02554321289062 C 0.3092340528964996 16.7914924621582 0.2241040468215942 16.4984130859375 0.2570540606975555 16.20025253295898 C 0.2900140583515167 15.90209293365479 0.4370940625667572 15.63464260101318 0.6712040305137634 15.44716262817383 C 3.742484092712402 12.98697280883789 6.626153945922852 10.64436340332031 9.746334075927734 8.074803352355957 L 9.750484466552734 8.071383476257324 L 9.754484176635742 8.067792892456055 C 10.68789386749268 7.229183197021484 11.66715431213379 6.436542987823486 12.61417388916016 5.669992923736572 C 13.54690361022949 4.914943218231201 14.51137447357178 4.134192943572998 15.406813621521 3.328413009643555 C 15.61344432830811 3.142413139343262 15.88022422790527 3.040003061294556 16.15802383422852 3.040003061294556 C 16.43583488464355 3.040003061294556 16.70267486572266 3.142423152923584 16.90937423706055 3.328413009643555 C 17.80291366577148 4.13265323638916 18.76835441589355 4.914183139801025 19.70200347900391 5.66998291015625 C 20.65025329589844 6.437562942504883 21.63078498840332 7.231263160705566 22.56167411804199 8.06777286529541 L 22.56569480895996 8.071383476257324 L 22.56986427307129 8.074812889099121 C 25.70036315917969 10.65254306793213 28.5840950012207 12.99515342712402 31.64513397216797 15.44714260101318 C 31.8792839050293 15.63464260101318 32.02636337280273 15.90208339691162 32.0593147277832 16.20023345947266 C 32.0922737121582 16.49836349487305 32.00715255737305 16.79137229919434 31.81963348388672 17.02530288696289 C 31.60535430908203 17.29298210144043 31.28562355041504 17.44643211364746 30.94233322143555 17.44643211364746 C 30.68501472473145 17.44643211364746 30.44253349304199 17.36120223999023 30.24111366271973 17.19995307922363 C 27.16397476196289 14.73540306091309 24.26539421081543 12.38066291809082 21.11915397644043 9.789463043212891 C 21.10560417175293 9.77845287322998 21.09373474121094 9.768113136291504 21.08198356628418 9.757513046264648 C 20.1882438659668 8.953092575073242 19.22275352478027 8.171512603759766 18.28906440734863 7.41567325592041 C 17.64017486572266 6.890432834625244 16.97248458862305 6.349963188171387 16.32013320922852 5.795233249664307 L 16.15818405151367 5.65751314163208 L 15.99623394012451 5.795233249664307 C 15.33653450012207 6.356213092803955 14.67098426818848 6.894793033599854 14.02735424041748 7.415643215179443 C 13.09454441070557 8.170753479003906 12.13002395629883 8.951553344726562 11.23467445373535 9.757243156433105 C 11.22263431549072 9.768113136291504 11.21076393127441 9.77845287322998 11.19859409332275 9.78834342956543 C 8.044064521789551 12.38619327545166 5.14548397064209 14.74094295501709 2.075214147567749 17.19998359680176 C 1.873984098434448 17.36128234863281 1.631654024124146 17.44651222229004 1.374324083328247 17.44651222229004 Z"/><path class="c" d="M 1.374324083328247 17.19651222229004 C 1.574184060096741 17.19651222229004 1.762454032897949 17.13028335571289 1.91892409324646 17.00485229492188 C 4.988294124603271 14.54654312133789 7.88603401184082 12.19247341156006 11.04103374481201 9.594233512878418 C 11.04983425140381 9.587093353271484 11.05837440490723 9.57960319519043 11.06744384765625 9.571413040161133 C 11.96764373779297 8.761343002319336 12.93475437164307 7.978463172912598 13.87008380889893 7.22130298614502 C 14.51255416870117 6.701403141021729 15.17690372467041 6.163793087005615 15.83428382873535 5.604783058166504 L 16.15818405151367 5.329342842102051 L 16.48208427429199 5.604783058166504 C 17.13213348388672 6.157553195953369 17.79862403869629 6.697052955627441 18.44636344909668 7.221363067626953 C 19.38255310058594 7.979223251342773 20.35062408447266 8.762892723083496 21.24950408935547 9.571943283081055 C 21.25799369812012 9.57960319519043 21.26653480529785 9.587093353271484 21.2780933380127 9.596492767333984 C 24.42342376708984 12.18694305419922 27.32116317749023 14.54100322723389 30.39735412597656 17.00478363037109 C 30.55396461486816 17.13016319274902 30.7424144744873 17.19643211364746 30.94233322143555 17.19643211364746 C 31.20929336547852 17.19643211364746 31.45788383483887 17.07715225219727 31.62457466125488 16.86893272399902 C 31.77029418945312 16.68714332580566 31.83644485473633 16.45941352844238 31.81083488464355 16.22770309448242 C 31.78521347045898 15.99593257904053 31.67088317871094 15.7880334854126 31.48884391784668 15.64226341247559 C 28.42690467834473 13.18955326080322 25.54233360290527 10.84627342224121 22.41094398498535 8.267812728881836 L 22.40261459350586 8.260943412780762 L 22.39457321166992 8.25372314453125 C 21.46847343444824 7.421523094177246 20.49049377441406 6.6298828125 19.54470443725586 5.864303112030029 C 18.60855484008789 5.106472969055176 17.64052391052246 4.322843074798584 16.74215316772461 3.51425313949585 C 16.58143424987793 3.369642972946167 16.37399482727051 3.290003061294556 16.15802383422852 3.290003061294556 C 15.94209384918213 3.290003061294556 15.73471450805664 3.369622945785522 15.5740442276001 3.514243125915527 C 14.67375373840332 4.324393272399902 13.70669364929199 5.107233047485352 12.77146434783936 5.864313125610352 C 11.826904296875 6.628862857818604 10.85019397735596 7.419453144073486 9.921564102172852 8.253763198852539 L 9.91356372833252 8.260952949523926 L 9.905254364013672 8.267783164978027 C 6.784193992614746 10.83808326721191 3.899683952331543 13.18137264251709 0.827474057674408 15.64230346679688 C 0.6454940438270569 15.7880334854126 0.5311640501022339 15.99594306945801 0.5055440664291382 16.22772216796875 C 0.4799240529537201 16.45948219299316 0.5460940599441528 16.68728256225586 0.6919140219688416 16.86924362182617 C 0.8585140705108643 17.07723236083984 1.10724401473999 17.19651222229004 1.374324083328247 17.19651222229004 M 1.374327182769775 17.69651412963867 C 0.9718199968338013 17.69651412963867 0.5728068351745605 17.52031517028809 0.3016740381717682 17.18184280395508 C -0.1724559515714645 16.5901927947998 -0.07689594477415085 15.72596263885498 0.5149340629577637 15.2520227432251 C 3.57314395904541 12.80230331420898 6.456714153289795 10.46004295349121 9.587404251098633 7.881823062896729 C 10.5228443145752 7.041393280029297 11.50588417053223 6.245442867279053 12.45688438415527 5.475673198699951 C 13.3881139755249 4.721833229064941 14.35100364685059 3.942183017730713 15.23958396911621 3.142573118209839 C 15.50071907043457 2.907523155212402 15.82935905456543 2.789998054504395 16.15802192687988 2.789998054504395 C 16.48668479919434 2.789998054504395 16.81536865234375 2.907523155212402 17.07659339904785 3.142573118209839 C 17.96499443054199 3.942183017730713 18.92807388305664 4.721833229064941 19.85930442810059 5.475673198699951 C 20.81048393249512 6.245623111724854 21.79351425170898 7.041393280029297 22.72877311706543 7.881823062896729 C 25.85965347290039 10.45986270904541 28.74322319030762 12.80230331420898 31.80143356323242 15.2520227432251 C 32.39327239990234 15.72596263885498 32.48882293701172 16.5901927947998 32.01470565795898 17.18166351318359 C 31.74359321594238 17.52032279968262 31.34470367431641 17.69643211364746 30.94233322143555 17.69643211364746 C 30.64120483398438 17.69643211364746 30.33823394775391 17.59794235229492 30.08487319946289 17.39511299133301 C 27.00909423828125 14.93166351318359 24.10959434509277 12.57622337341309 20.96022415161133 9.982442855834961 C 20.94466400146484 9.969813346862793 20.92947387695312 9.956632614135742 20.91446495056152 9.943082809448242 C 20.02606391906738 9.143472671508789 19.06298446655273 8.363822937011719 18.13176345825195 7.609982967376709 C 17.48043441772461 7.082763195037842 16.81390380859375 6.543282985687256 16.15818405151367 5.985682964324951 C 15.50246429443359 6.543282985687256 14.83612442016602 7.082763195037842 14.18461418151855 7.609982967376709 C 13.25338363647461 8.363822937011719 12.29048442840576 9.143472671508789 11.40190410614014 9.943082809448242 C 11.38689422607422 9.956632614135742 11.3717041015625 9.969813346862793 11.35614395141602 9.982442855834961 C 8.206583976745605 12.57622337341309 5.307273864746094 14.93166351318359 2.231493949890137 17.39511299133301 C 1.97839367389679 17.59799766540527 1.675402402877808 17.69651412963867 1.374327182769775 17.69651412963867 Z"/></g></g></svg>