<svg xmlns="http://www.w3.org/2000/svg" width="31.208" height="31.137" viewBox="0 0 31.208 31.137"><defs><style>.a{fill:#fff8f8;}.b,.c{stroke:none;}.c{fill:#3abe84;}</style></defs><g transform="translate(0 -0.561)"><g transform="translate(0 0.561)"><g class="a" transform="translate(0 -0.561)"><path class="b" d="M 18.55043601989746 20.58180046081543 L 5.364885330200195 20.58180046081543 C 4.924725532531738 20.58180046081543 4.495322704315186 20.28843688964844 4.342257022857666 19.88373947143555 L 0.3022753596305847 7.833669662475586 L 0.2993353605270386 7.824909687042236 L 0.2957653403282166 7.816379547119141 C 0.2164553552865982 7.627429485321045 0.2318853437900543 7.284289836883545 0.4148253500461578 6.994029521942139 C 0.5463058948516846 6.785441875457764 0.8116245865821838 6.531640529632568 1.329638361930847 6.504619598388672 L 15.04275512695312 6.504619598388672 C 15.63721561431885 6.504619598388672 16.12084579467773 6.988239765167236 16.12084579467773 7.582699775695801 C 16.12084579467773 8.177159309387207 15.63721561431885 8.660789489746094 15.04275512695312 8.660789489746094 L 3.115395307540894 8.660789489746094 L 2.766295433044434 8.660789489746094 L 2.87871527671814 8.991290092468262 L 6.055955410003662 18.3323802947998 L 6.113605499267578 18.50187873840332 L 6.292635440826416 18.50187873840332 L 17.6226749420166 18.50187873840332 L 17.80583572387695 18.50187873840332 L 17.86104583740234 18.32723999023438 L 23.15865325927734 1.570540308952332 C 23.29818916320801 1.202259182929993 23.6390266418457 0.8109996914863586 24.18049621582031 0.8109996914863586 L 29.8804759979248 0.8109996914863586 C 30.47493553161621 0.8109996914863586 30.95855522155762 1.28892970085144 30.95855522155762 1.876379728317261 C 30.95855522155762 2.470839738845825 30.47493553161621 2.954469680786133 29.8804759979248 2.954469680786133 L 25.10825538635254 2.954469680786133 L 24.92509460449219 2.954469680786133 L 24.8698844909668 3.129109621047974 L 19.57025527954102 19.8922290802002 L 19.56794548034668 19.8995304107666 L 19.56609535217285 19.90694999694824 C 19.46517562866211 20.31060028076172 19.05701446533203 20.58180046081543 18.55043601989746 20.58180046081543 Z"/><path class="c" d="M 24.18049621582031 1.060998916625977 C 23.76926422119141 1.060998916625977 23.50605010986328 1.364738464355469 23.39479064941406 1.652957916259766 L 18.09941482543945 18.4025993347168 L 17.98899459838867 18.75188064575195 L 17.6226749420166 18.75188064575195 L 6.292634963989258 18.75188064575195 L 5.934576034545898 18.75188064575195 L 5.819265365600586 18.41288948059082 L 2.642024993896484 9.071799278259277 L 2.417196273803711 8.410789489746094 L 3.115394592285156 8.410789489746094 L 15.04275512695312 8.410789489746094 C 15.49936580657959 8.410789489746094 15.87084579467773 8.039309501647949 15.87084579467773 7.582699775695801 C 15.87084579467773 7.126099586486816 15.49936580657959 6.754619598388672 15.04275512695312 6.754619598388672 L 1.336507797241211 6.754619598388672 C 1.009506225585938 6.773069381713867 0.7705974578857422 6.898433685302734 0.6263256072998047 7.127339363098145 C 0.4819755554199219 7.356359481811523 0.4809246063232422 7.611559867858887 0.526275634765625 7.719619750976562 L 0.5334358215332031 7.736669540405273 L 0.5393161773681641 7.754199981689453 L 4.577722549438477 19.7995719909668 C 4.696687698364258 20.10840225219727 5.026453018188477 20.33180046081543 5.364885330200195 20.33180046081543 L 18.55043411254883 20.33180046081543 C 18.94026565551758 20.33180046081543 19.25095558166504 20.13669967651367 19.32354545593262 19.8463191986084 L 19.32725524902344 19.83147048950195 L 19.33187484741211 19.81686973571777 L 24.63151550292969 3.053739547729492 L 24.74193572998047 2.704460144042969 L 25.10825538635254 2.704460144042969 L 29.8804759979248 2.704460144042969 C 30.33707618713379 2.704460144042969 30.70855522155762 2.332979202270508 30.70855522155762 1.876379013061523 C 30.70855522155762 1.426778793334961 30.33707618713379 1.060998916625977 29.88046455383301 1.060998916625977 L 24.18049621582031 1.060998916625977 M 24.18049621582031 0.5609989166259766 L 29.88046455383301 0.5609989166259766 C 30.6048755645752 0.5609989166259766 31.20855522155762 1.145608901977539 31.20855522155762 1.876379013061523 C 31.20855522155762 2.607139587402344 30.61123466491699 3.204460144042969 29.8804759979248 3.204460144042969 L 25.10825538635254 3.204460144042969 L 19.80861663818359 19.96759033203125 C 19.67517471313477 20.5013599395752 19.14775466918945 20.83180046081543 18.55043411254883 20.83180046081543 L 5.364885330200195 20.83180046081543 C 4.837465286254883 20.83180046081543 4.303686141967773 20.49501037597656 4.106695175170898 19.96759033203125 L 0.06524467468261719 7.913139343261719 C -0.1508045196533203 7.398419380187988 0.1478557586669922 6.311809539794922 1.323434829711914 6.254619598388672 L 15.04275512695312 6.254619598388672 C 15.77352523803711 6.254619598388672 16.37084579467773 6.851940155029297 16.37084579467773 7.582699775695801 C 16.37084579467773 8.313469886779785 15.77352523803711 8.910789489746094 15.04275512695312 8.910789489746094 L 3.115394592285156 8.910789489746094 L 6.292634963989258 18.25188064575195 L 17.6226749420166 18.25188064575195 L 22.92231559753418 1.488750457763672 C 23.11930465698242 0.9613304138183594 23.58317565917969 0.5609989166259766 24.18049621582031 0.5609989166259766 Z"/></g><g class="a" transform="translate(-34.202 -334.501)"><path class="b" d="M 40.76144409179688 365.3879089355469 C 39.70645523071289 365.3879089355469 38.70772552490234 364.9701843261719 37.94923400878906 364.211669921875 C 37.19072341918945 363.4531860351562 36.77300262451172 362.4544677734375 36.77300262451172 361.3994750976562 C 36.77300262451172 360.344482421875 37.19073486328125 359.3457641601562 37.94923400878906 358.5872497558594 C 38.70773315429688 357.8287353515625 39.70646286010742 357.4110107421875 40.76144409179688 357.4110107421875 C 41.81642532348633 357.4110107421875 42.81515502929688 357.8287353515625 43.57365417480469 358.5872497558594 C 44.3321533203125 359.3457641601562 44.74988555908203 360.344482421875 44.74988555908203 361.3994750976562 C 44.74988555908203 362.4544677734375 44.3321647644043 363.4531860351562 43.57365417480469 364.211669921875 C 42.81516265869141 364.9701843261719 41.81643295288086 365.3879089355469 40.76144409179688 365.3879089355469 Z M 40.76144409179688 359.5544738769531 C 39.74762344360352 359.5544738769531 38.92282485961914 360.41064453125 38.92282485961914 361.4630126953125 C 38.92282485961914 362.515380859375 39.74762344360352 363.3715209960938 40.76144409179688 363.3715209960938 C 41.77229309082031 363.3715209960938 42.59523010253906 362.5204772949219 42.60004043579102 361.4723510742188 C 42.63486480712891 360.9771423339844 42.47260665893555 360.5075988769531 42.14260482788086 360.1493225097656 C 41.79776382446289 359.7749328613281 41.29498291015625 359.5581359863281 40.76316452026367 359.5544738769531 L 40.76230239868164 359.5544738769531 L 40.76144409179688 359.5544738769531 Z"/><path class="c" d="M 40.76144409179688 357.6610107421875 C 39.77323532104492 357.6610107421875 38.83728408813477 358.052734375 38.12600326538086 358.7640380859375 C 37.41472244262695 359.4753112792969 37.02300262451172 360.4112548828125 37.02300262451172 361.3994750976562 C 37.02300262451172 362.3876953125 37.41472244262695 363.3236389160156 38.12600326538086 364.034912109375 C 38.83728408813477 364.7461853027344 39.77323532104492 365.1379089355469 40.76144409179688 365.1379089355469 C 41.74965286254883 365.1379089355469 42.68560409545898 364.7461853027344 43.39688491821289 364.034912109375 C 44.1081657409668 363.3236389160156 44.49988555908203 362.3876953125 44.49988555908203 361.3994750976562 C 44.49988555908203 360.4112548828125 44.1081657409668 359.4753112792969 43.39688491821289 358.7640380859375 C 42.68560409545898 358.052734375 41.74965286254883 357.6610107421875 40.76144409179688 357.6610107421875 M 42.8499870300293 361.4818115234375 C 42.8402214050293 362.6634216308594 41.90707015991211 363.6215209960938 40.76144409179688 363.6215209960938 C 39.60977554321289 363.6215209960938 38.67282485961914 362.6532287597656 38.67282485961914 361.4630126953125 C 38.67282485961914 360.2727966308594 39.60977554321289 359.3044738769531 40.76488494873047 359.3044738769531 C 41.36570358276367 359.3086242675781 41.93489456176758 359.5548095703125 42.32648468017578 359.9799499511719 C 42.70187377929688 360.3874816894531 42.88739013671875 360.9201354980469 42.8499870300293 361.4818115234375 M 40.76144409179688 357.1610107421875 C 43.08083343505859 357.1610107421875 44.99988555908203 359.080078125 44.99988555908203 361.3994750976562 C 44.99988555908203 363.7188720703125 43.08083343505859 365.6379089355469 40.76144409179688 365.6379089355469 C 38.44205474853516 365.6379089355469 36.52300262451172 363.7188720703125 36.52300262451172 361.3994750976562 C 36.52300262451172 359.080078125 38.44205474853516 357.1610107421875 40.76144409179688 357.1610107421875 Z M 40.76144409179688 363.1215209960938 C 41.61930465698242 363.1215209960938 42.35006332397461 362.3907775878906 42.35006332397461 361.4630126953125 C 42.41996383666992 360.5352478027344 41.68919372558594 359.8108520507812 40.76144409179688 359.8044738769531 C 39.90358352661133 359.8044738769531 39.17282485961914 360.5352478027344 39.17282485961914 361.4630126953125 C 39.17282485961914 362.3907775878906 39.89723587036133 363.1215209960938 40.76144409179688 363.1215209960938 Z"/></g><g class="a" transform="translate(-186.47 -334.501)"><path class="b" d="M 203.3614501953125 365.3879089355469 C 202.3064575195312 365.3879089355469 201.3077392578125 364.9701843261719 200.5492401123047 364.211669921875 C 199.7907409667969 363.4531860351562 199.3730163574219 362.4544677734375 199.3730163574219 361.3994750976562 C 199.3730163574219 360.344482421875 199.7907409667969 359.3457336425781 200.5492401123047 358.5872497558594 C 201.3077392578125 357.8287353515625 202.3064575195312 357.4110107421875 203.3614501953125 357.4110107421875 C 204.4200439453125 357.4110107421875 205.4215698242188 357.8307189941406 206.1815643310547 358.5927734375 C 206.9378509521484 359.3511352539062 207.3527679443359 360.34765625 207.3498840332031 361.3988037109375 C 207.3498840332031 362.4620666503906 206.9402923583984 363.4611206054688 206.1965789794922 364.2126159667969 C 205.4464874267578 364.9705200195312 204.4396209716797 365.3879089355469 203.3614501953125 365.3879089355469 Z M 203.3678131103516 359.5544738769531 C 202.3539886474609 359.5544738769531 201.5291748046875 360.41064453125 201.5291748046875 361.4630126953125 C 201.5291748046875 362.515380859375 202.3539886474609 363.3715209960938 203.3678131103516 363.3715209960938 C 204.3788452148438 363.3715209960938 205.2018890380859 362.52001953125 205.2064056396484 361.4716186523438 C 205.2382202148438 360.9745178222656 205.0728759765625 360.5037231445312 204.7403106689453 360.1450805664062 C 204.3955993652344 359.7734069824219 203.8959808349609 359.5581359863281 203.3695373535156 359.5544738769531 L 203.3686828613281 359.5544738769531 L 203.3678131103516 359.5544738769531 Z"/><path class="c" d="M 203.3614501953125 357.6610107421875 C 202.3732452392578 357.6610107421875 201.4373016357422 358.052734375 200.7260131835938 358.7640380859375 C 200.0147399902344 359.4753112792969 199.6230163574219 360.4112548828125 199.6230163574219 361.3994750976562 C 199.6230163574219 362.3876953125 200.0147399902344 363.3236389160156 200.7260131835938 364.034912109375 C 201.4373016357422 364.7461853027344 202.3732452392578 365.1379089355469 203.3614501953125 365.1379089355469 C 204.3723602294922 365.1379089355469 205.3161163330078 364.7468566894531 206.0188903808594 364.0367431640625 C 206.7159729003906 363.3323974609375 207.0998840332031 362.3957824707031 207.0998840332031 361.3981018066406 C 207.1025848388672 360.4138793945312 206.7135772705078 359.4802856445312 206.0045471191406 358.7693176269531 C 205.2918090820312 358.0546264648438 204.3531341552734 357.6610107421875 203.3614501953125 357.6610107421875 M 205.4563598632812 361.4800415039062 C 205.4474945068359 362.6624755859375 204.5139923095703 363.6215209960938 203.3678131103516 363.6215209960938 C 202.2161407470703 363.6215209960938 201.2791748046875 362.6532287597656 201.2791748046875 361.4630126953125 C 201.2791748046875 360.2727966308594 202.2161407470703 359.3044738769531 203.3712768554688 359.3044738769531 C 203.9664001464844 359.30859375 204.5322113037109 359.5530395507812 204.9236145019531 359.97509765625 C 205.3016510009766 360.3827514648438 205.4904937744141 360.9165649414062 205.4563598632812 361.4800415039062 M 203.3614501953125 357.1610107421875 C 205.6808319091797 357.1610107421875 207.6062316894531 359.080078125 207.5998840332031 361.3994750976562 C 207.5998840332031 363.7188720703125 205.7443695068359 365.6379089355469 203.3614501953125 365.6379089355469 C 201.0420532226562 365.6379089355469 199.1230163574219 363.7188720703125 199.1230163574219 361.3994750976562 C 199.1230163574219 359.080078125 201.0420532226562 357.1610107421875 203.3614501953125 357.1610107421875 Z M 203.3678131103516 363.1215209960938 C 204.2256622314453 363.1215209960938 204.9564208984375 362.3907775878906 204.9564208984375 361.4630126953125 C 205.0199737548828 360.5352478027344 204.2892150878906 359.8108520507812 203.3678131103516 359.8044738769531 C 202.5099487304688 359.8044738769531 201.7791748046875 360.5352478027344 201.7791748046875 361.4630126953125 C 201.7791748046875 362.3907775878906 202.5099487304688 363.1215209960938 203.3678131103516 363.1215209960938 Z"/></g></g></g></svg>