<svg xmlns="http://www.w3.org/2000/svg" width="26.278" height="32.845" viewBox="0 0 26.278 32.845"><defs><style>.a{fill:#fff;}</style></defs><g transform="translate(-3.285 0)"><g transform="translate(0.001 0)"><path class="a" d="M108.874,391.115h-5.515l-.509-6.611a.547.547,0,0,0-1.092.084l.5,6.527H98.473v-6.022a.547.547,0,0,0-.547-.547H94.641a.547.547,0,0,0-.547.547v6.022H90.305l.5-6.527a.547.547,0,0,0-1.092-.084l-.509,6.611H85.882a.547.547,0,0,0,0,1.095h22.991a.547.547,0,0,0,0-1.095Zm-11.5-3.284a.547.547,0,0,0,0,1.095v2.19h-2.19v-5.474h2.19Z" transform="translate(-79.861 -359.365)"/><path class="a" d="M231.049,103.593a5.573,5.573,0,0,1,1.994,0,.517.517,0,0,0,.1.009.547.547,0,0,0,.1-1.086,6.663,6.663,0,0,0-2.389,0,.548.548,0,0,0,.2,1.077Z" transform="translate(-215.623 -95.839)"/><path class="a" d="M154.7,181.394v-.547a5.559,5.559,0,0,1,.09-1,.547.547,0,0,0-1.077-.2,6.6,6.6,0,0,0-.108,1.194v.547a.547.547,0,0,0,1.095,0Z" transform="translate(-143.748 -167.709)"/><path class="a" d="M340.43,181.945a.547.547,0,0,0,.547-.547v-.547a6.6,6.6,0,0,0-.108-1.194.547.547,0,0,0-1.077.2,5.55,5.55,0,0,1,.09,1v.547A.547.547,0,0,0,340.43,181.945Z" transform="translate(-317.986 -167.712)"/><path class="a" d="M77.316,3.259a.547.547,0,0,0-.774,0l-6.3,6.3-1.1-.447,7.08-7.08a.547.547,0,0,0-.774-.774L68.36,8.34l-.454-1.091L74.221.935a.547.547,0,0,0-.774-.774L66.874,6.734a.548.548,0,0,0-.119.6l.767,1.847-2.081,2.081a2.124,2.124,0,0,0-2.211,0L61.153,9.181l.779-1.828a.548.548,0,0,0-.117-.6L55.226.161a.547.547,0,1,0-.774.774l6.329,6.329-.462,1.083L53.228,1.255a.547.547,0,0,0-.774.774l7.093,7.093-1.084.468-6.33-6.33a.548.548,0,0,0-.774.775l6.592,6.592a.548.548,0,0,0,.6.115l1.825-.787,2.076,2.077a2.126,2.126,0,0,0,0,2.21l-2.081,2.081-1.852-.764a.548.548,0,0,0-.6.119l-6.569,6.568a.547.547,0,0,0,.774.774l6.311-6.311,1.094.451-7.084,7.084a.547.547,0,1,0,.774.774l7.085-7.085.455,1.1-6.308,6.308a.547.547,0,1,0,.774.774L61.8,19.548a.547.547,0,0,0,.119-.6L61.15,17.1l2.08-2.081a2.124,2.124,0,0,0,2.211,0L67.523,17.1l-.762,1.864a.547.547,0,0,0,.119.594l6.559,6.558a.547.547,0,0,0,.774-.774l-6.3-6.3.451-1.1,7.082,7.082a.547.547,0,1,0,.774-.774l-7.083-7.084,1.094-.451,6.311,6.311a.547.547,0,0,0,.774-.774L70.745,15.68a.549.549,0,0,0-.6-.119l-1.852.764-2.081-2.081a2.126,2.126,0,0,0,0-2.21L68.3,9.95l1.87.757a.547.547,0,0,0,.592-.12l6.555-6.554A.547.547,0,0,0,77.316,3.259ZM64.336,14.233a1.095,1.095,0,1,1,1.095-1.095A1.1,1.1,0,0,1,64.336,14.233Z" transform="translate(-47.914 0)"/></g></g></svg>